<?xml version="1.0" encoding="utf-8"?>
<!-- Generator: Adobe Illustrator 25.0.0, SVG Export Plug-In . SVG Version: 6.00 Build 0)  -->
<svg version="1.1" id="Filled" xmlns="http://www.w3.org/2000/svg" xmlns:xlink="http://www.w3.org/1999/xlink" x="0px" y="0px"
	 viewBox="0 0 512 512" style="enable-background:new 0 0 512 512;" xml:space="preserve">
<style type="text/css">
	.st0{fill:#379A6B;}
	.st1{fill:#44C086;}
	.st2{fill:#3BA673;}
	.st3{fill:#F5CBAA;}
</style>
<path class="st0" d="M378.5,426.2l-26.5,8.3l-22.9,7.2H209L185.6,367l-76.8-245.4l76.8-24l82-25.7L352,341.6L378.5,426.2z"/>
<path class="st1" d="M322.3,396.8l5.7,18.3L254.8,438l-5.7-18.3l-18.3,5.7l-84.1-268.7l18.3-5.7l-5.7-18.3l73.3-22.9l5.7,18.3
	l18.3-5.7L340.7,391L322.3,396.8z"/>
<path class="st2" d="M185.6,70.4H352v371.2H185.6V70.4z"/>
<path class="st1" d="M307.2,396.8V416h-76.8v-19.2h-19.2V115.2h19.2V96h76.8v19.2h19.2v281.6H307.2z"/>
<circle class="st2" cx="268.8" cy="256" r="32"/>
<path class="st3" d="M403.2,288v153.6h-44.8c-35.3,0-64-28.7-64-64h0.1L253,316.2c-7.9-11.7-4.8-27.6,6.9-35.5
	c11.7-7.9,27.6-4.8,35.5,6.9l37.4,51.7H352V185.6l48.2,90.4C402.2,279.7,403.2,283.8,403.2,288L403.2,288z"/>
<path d="M179.2,368v73.6c0,3.5,2.9,6.4,6.4,6.4h217.6c3.5,0,6.4-2.9,6.4-6.4V288c0-5.3-1.3-10.4-3.8-15.1L358.4,184V70.4
	c0-3.5-2.9-6.4-6.4-6.4H185.6c-3.5,0-6.4,2.9-6.4,6.4v22.5l-72.3,22.6c-3.4,1.1-5.3,4.6-4.2,8c0,0,0,0,0,0L179.2,368z M171,149.1
	l-3.8-12.2l12-3.8v106.3l-24.6-78.5l12.2-3.8C170.2,156,172.1,152.4,171,149.1z M396.8,288v147.2h-38.4c-31.3,0-56.9-25.1-57.6-56.4
	c0.3-1.7,0-3.4-1-4.8l-41.5-61.4c-6-8.7-3.8-20.7,4.9-26.7c8.7-6,20.7-3.8,26.7,4.9c0.1,0.1,0.1,0.2,0.2,0.3c0,0.1,0.1,0.1,0.1,0.2
	l37.4,51.7c1.2,1.7,3.1,2.6,5.2,2.7H352c3.5,0,6.4-2.9,6.4-6.4v-128l36.1,67.8C396,281.7,396.8,284.8,396.8,288z M230.4,390.4h-12.8
	V121.6h12.8c3.5,0,6.4-2.9,6.4-6.4v-12.8h64v12.8c0,3.5,2.9,6.4,6.4,6.4H320v189l-19.3-26.7c-0.8-1.1-1.6-2.2-2.5-3.2
	c13.6-16.3,11.5-40.5-4.8-54.1c-16.3-13.6-40.5-11.5-54.1,4.8c-13.6,16.3-11.5,40.5,4.8,54.1c0.6,0.5,1.2,1,1.8,1.4
	c-5.5,10.5-4.8,23.1,1.8,32.9l40.3,59.7c0.3,10.5,2.9,20.8,7.7,30.2h-58.9v-12.8C236.8,393.3,233.9,390.4,230.4,390.4L230.4,390.4z
	 M256.3,275.3c-0.8,0.5-1.5,1.1-2.2,1.6c-11.6-8.1-14.4-24.1-6.3-35.7c8.1-11.6,24.1-14.4,35.7-6.3c11.6,8.1,14.4,24.1,6.3,35.7
	c-0.6,0.8-1.1,1.5-1.8,2.3C277.7,268.1,265.7,269,256.3,275.3z M192,76.8h153.6v256h-9.5l-3.3-4.5V115.2c0-3.5-2.9-6.4-6.4-6.4
	h-12.8V96c0-3.5-2.9-6.4-6.4-6.4h-76.8c-3.5,0-6.4,2.9-6.4,6.4v12.8h-12.8c-3.5,0-6.4,2.9-6.4,6.4v281.6c0,3.5,2.9,6.4,6.4,6.4H224
	V416c0,3.5,2.9,6.4,6.4,6.4h73.8c4,4.9,8.7,9.2,13.8,12.8H192L192,76.8z M179.2,106.3v13.4l-21.9,6.9c-3.4,1.1-5.3,4.6-4.2,8
	l3.8,12.2l-12.2,3.8c-3.4,1.1-5.3,4.6-4.2,8c0,0,0,0,0,0l38.7,123.6v42.9l-62.4-199.3L179.2,106.3z"/>
</svg>
