<?xml version="1.0" encoding="utf-8"?>
<!-- Generator: Adobe Illustrator 25.0.0, SVG Export Plug-In . SVG Version: 6.00 Build 0)  -->
<svg version="1.1" id="Layer_1" xmlns="http://www.w3.org/2000/svg" xmlns:xlink="http://www.w3.org/1999/xlink" x="0px" y="0px"
	 viewBox="0 0 512 512" style="enable-background:new 0 0 512 512;" xml:space="preserve">
<style type="text/css">
	.st0{fill:#87D147;}
	.st1{fill:#B2E26D;}
	.st2{fill:#70D6F9;}
	.st3{fill:#F5C84C;}
	.st4{fill:#FC657E;}
	.st5{fill:#FF0000;stroke:#000000;stroke-width:6.8031;stroke-miterlimit:10;}
</style>
<g>
	<path class="st0" d="M404.3,183.4v-37c0-5-4-9-9-9H116.5c-5,0-9,4-9,9v37.1h296.8L404.3,183.4z"/>
	<path class="st0" d="M383.4,137.4v-33c0-4.2-3.4-7.7-7.7-7.7H136.3c-4.2,0-7.7,3.4-7.7,7.7v33H383.4z"/>
	<path class="st1" d="M373.6,183.4c-9.6-5.9-16.8-15-20-25.9c-0.5-1.6-1.9-2.6-3.5-2.6H161.9c-1.6,0-3,1.1-3.5,2.6
		c-3.2,10.7-10.4,20-20,25.9H373.6z"/>
	<path class="st1" d="M359,137.4c-9.3-5-16.2-13.3-19.2-23.4c-0.5-1.3-1.6-2.2-3-2.2H175.2c-1.4,0-2.6,1-3,2.2
		c-3,10.1-9.9,18.4-19.2,23.4H359z"/>
	<path class="st2" d="M231.5,59h-3.4v-3.4c0-2.4-2.1-4.5-4.5-4.5c-2.4,0-4.5,2.1-4.5,4.5V59h-3.4c-2.4,0-4.5,2.1-4.5,4.5
		c0,2.4,2.1,4.5,4.5,4.5h3.4v3.4c0,2.4,2.1,4.5,4.5,4.5c2.4,0,4.5-2.1,4.5-4.5V68h3.4c2.4,0,4.5-2.1,4.5-4.5
		C236,61.1,233.9,59,231.5,59z"/>
	<path class="st3" d="M324.5,447.7c-6.4-1.1-11.4-6.1-12.6-12.3c0-0.2-0.2-0.3-0.3-0.2c-0.2,0-0.2,0.2-0.2,0.2
		c-1.3,6.4-6.2,11.2-12.6,12.3c-0.2,0-0.3,0.2-0.3,0.3c0,0.2,0.2,0.2,0.3,0.3c6.4,1.1,11.4,6.1,12.6,12.3c0,0.2,0.2,0.3,0.3,0.2
		c0.2,0,0.2-0.2,0.2-0.2c1.3-6.4,6.2-11.2,12.6-12.3c0.2,0,0.3-0.2,0.3-0.3C324.8,447.7,324.6,447.7,324.5,447.7z"/>
	<path class="st4" d="M336.5,72.6c-4.3-0.8-7.7-4.2-8.6-8.5c0-0.2-0.2-0.2-0.2-0.2c-0.2,0-0.2,0-0.2,0.2c-0.8,4.3-4.3,7.7-8.6,8.5
		c-0.2,0-0.2,0.2-0.2,0.2c0,0.2,0,0.2,0.2,0.2c4.3,0.8,7.7,4.2,8.6,8.5c0,0.2,0.2,0.2,0.2,0.2c0.2,0,0.2,0,0.2-0.2
		c0.8-4.3,4.3-7.7,8.6-8.5C336.5,73,336.6,72.8,336.5,72.6z"/>
	<circle class="st3" cx="184" cy="75.2" r="4.8"/>
	<g>
		<circle class="st0" cx="337.6" cy="419.2" r="4.8"/>
		<circle class="st0" cx="100.8" cy="118.4" r="4.8"/>
		<path class="st0" d="M414.2,183.4H97.8c-5.6,0-10.1,4.5-10.1,10.1v181c0,5.6,4.5,10.1,10.1,10.1H245v-17.1c0-6.1,5-11,11-11
			s11,5,11,11v17.1h147.2c5.6,0,10.1-4.5,10.1-10.1V193.6C424.3,188,419.8,183.5,414.2,183.4z"/>
	</g>
	<path class="st1" d="M401.4,241c-16.6-5-29.6-18.1-34.7-34.7c-0.5-1.8-2.2-3-4-3H149.3c-1.9,0-3.5,1.3-4,3
		c-5,16.6-18.1,29.6-34.7,34.7c-1.8,0.5-3,2.2-3,4V323c0,1.9,1.3,3.5,3,4c16.6,5,29.6,18.1,34.7,34.7c0.5,1.8,2.2,3,4,3h96
		c1.4-5.9,7.5-9.4,13.4-8c4,1,7,4,8,8h96c1.9,0,3.5-1.3,4-3c5-16.6,18.1-29.6,34.7-34.7c1.8-0.5,3-2.2,3-4V245
		C404.5,243.2,403.2,241.6,401.4,241L401.4,241z"/>
	<circle class="st0" cx="256" cy="284" r="56.8"/>
	<path d="M262.9,313.1h-22.2c-2.2,0-4-1.8-4-4s1.8-4,4-4h22.2c4.6,0,8.5-3.8,8.5-8.5s-3.8-8.5-8.5-8.5H249
		c-9.1,0.2-16.6-7.2-16.6-16.3c-0.2-9.1,7.2-16.6,16.3-16.6h0.3h19.8c2.2,0,4,1.8,4,4s-1.8,4-4,4h-19.7c-4.6,0-8.6,3.7-8.6,8.5
		c0,4.6,3.7,8.6,8.5,8.6h0.2H263c9.1,0,16.5,7.4,16.5,16.5S272,313.1,262.9,313.1z"/>
	<path d="M256,321.6c-2.2,0-4-1.8-4-4v-67.2c0-2.2,1.8-4,4-4c2.2,0,4,1.8,4,4v67.2C260,319.8,258.2,321.6,256,321.6z"/>
	<path d="M414.2,388.6H267c-2.2,0-4-1.8-4-4v-17.1c0-3.8-3.2-7-7-7c-3.8,0-7,3.2-7,7v17.1c0,2.2-1.8,4-4,4H97.8
		c-7.8,0-14.1-6.4-14.1-14.1v-181c0-7.8,6.4-14.1,14.1-14.1h316.5c7.8,0,14.1,6.4,14.1,14.1v181
		C428.3,382.4,422.1,388.6,414.2,388.6z M271,380.6h143.2c3.4,0,6.1-2.7,6.1-6.1v-181c0-3.4-2.7-6.1-6.1-6.1H97.8
		c-3.4,0-6.1,2.7-6.1,6.1v181c0,3.4,2.7,6.1,6.1,6.1H241v-13.1c0-8.3,6.7-15,15-15c8.3,0,15,6.7,15,15V380.6z"/>
	<path d="M168.3,288h-12c-2.2,0-4-1.8-4-4s1.8-4,4-4h12c2.2,0,4,1.8,4,4S170.6,288,168.3,288z"/>
	<path d="M355.7,288h-12c-2.2,0-4-1.8-4-4s1.8-4,4-4h12c2.2,0,4,1.8,4,4S357.8,288,355.7,288z"/>
	<path d="M362.7,368.8h-96c-1.8,0-3.4-1.3-3.8-3c-1-3.8-4.8-6.1-8.6-5.1c-2.6,0.6-4.5,2.6-5.1,5.1c-0.5,1.8-2.1,3-3.8,3h-96
		c-3.7,0-6.7-2.4-7.8-5.8c-4.6-15.4-16.6-27.4-32-32c-3.5-1.1-5.8-4.3-5.8-7.8v-78.1c0-3.7,2.4-6.7,5.8-7.8
		c15.4-4.6,27.4-16.6,32-32c1-3.5,4.2-5.8,7.8-5.8h213.6c3.7,0,6.7,2.4,7.8,5.8c4.6,15.4,16.6,27.4,32,32c3.5,1.1,5.8,4.3,5.8,7.8
		v78.1c0,3.7-2.4,6.7-5.8,7.8c-15.4,4.6-27.4,16.6-32,32C369.6,366.4,366.4,368.8,362.7,368.8z M269.4,360.8h93.3
		c0.2,0,0.2,0,0.2-0.2c5.4-17.9,19.4-32,37.3-37.3l0.2-0.2v-78.1c0-0.2,0-0.2-0.2-0.2c-17.9-5.4-32-19.4-37.3-37.3l-0.2-0.2H149.3
		c-0.2,0-0.2,0-0.2,0.2c-5.4,17.9-19.4,32-37.3,37.3l-0.2,0.2v78.1c0,0.2,0,0.2,0.2,0.2c17.9,5.4,32,19.4,37.3,37.3l0.2,0.2h93.3
		c3.7-7.4,12.8-10.4,20.2-6.7C265.6,355.5,268,357.8,269.4,360.8L269.4,360.8z"/>
	<path d="M404.3,187.4H107.7c-2.2,0-4-1.8-4-4v-37c0-7.2,5.8-13,13-13h278.9c7.2,0,13,5.8,13,13v37.1
		C408.3,185.6,406.6,187.4,404.3,187.4L404.3,187.4z M111.7,179.4h288.8v-33c0-2.7-2.2-5-5-5h-279c-2.7,0-5,2.2-5,5L111.7,179.4z"/>
	<path d="M383.4,141.4H128.6c-2.2,0-4-1.8-4-4v-33c0-6.4,5.3-11.7,11.7-11.7h239.4c6.4,0,11.7,5.3,11.7,11.7v33
		C387.4,139.7,385.6,141.4,383.4,141.4L383.4,141.4z M132.6,133.4h246.7v-29c0-2.1-1.6-3.7-3.7-3.7H136.3c-2.1,0-3.7,1.6-3.7,3.7
		L132.6,133.4z"/>
	<path d="M256,344.8c-33.6,0-60.8-27.2-60.8-60.8s27.2-60.8,60.8-60.8s60.8,27.2,60.8,60.8S289.6,344.8,256,344.8z M256,231.2
		c-29.1,0-52.8,23.7-52.8,52.8s23.7,52.8,52.8,52.8s52.8-23.7,52.8-52.8S285.1,231.4,256,231.2z"/>
	<path d="M373.6,187.4H138.4c-2.2,0-4-1.8-4-4c0-1.4,0.8-2.7,1.9-3.4c8.8-5.3,15.4-13.8,18.2-23.5c1-3.2,4-5.4,7.4-5.4h188.2
		c3.4,0,6.4,2.2,7.4,5.4c3,9.9,9.4,18.2,18.2,23.5c1.9,1.1,2.6,3.7,1.3,5.4C376.3,186.7,375,187.4,373.6,187.4L373.6,187.4z
		 M149.9,179.4h212.3c-5.8-5.8-9.9-12.8-12.3-20.5H162.1C159.7,166.7,155.5,173.8,149.9,179.4z"/>
	<path d="M359,141.4H153c-2.2,0-4-1.8-4-4c0-1.4,0.8-2.9,2.1-3.5c8.3-4.5,14.6-12,17.3-21c1-3,3.7-5.1,6.9-5.1h161.6
		c3.2,0,5.9,2.1,6.9,5.1c2.7,9,9,16.5,17.3,21c1.9,1,2.7,3.5,1.6,5.4C361.9,140.6,360.5,141.4,359,141.4L359,141.4z M165.1,133.4
		H347c-5-5-8.6-10.9-10.7-17.6H175.8C173.8,122.4,170.1,128.5,165.1,133.4z"/>
	<path class="st5" d="M318.7,385.4v15.3c0,5.5-4.5,10-10,10H274v35.8c0,5.5-4.5,10-10,10h-15.3c-5.5,0-10-4.5-10-10v-35.8h-36.9
		c-5.5,0-10-4.5-10-10v-15.3c0-5.5,4.5-10,10-10h36.9v-34.7c0-5.5,4.5-10,10-10H264c5.5,0,10,4.5,10,10v34.7h34.7
		C314.2,375.4,318.7,379.9,318.7,385.4z"/>
</g>
</svg>
